<?xml version="1.0" encoding="UTF-8"?>
<svg width="1024px" height="1024px" viewBox="0 0 1024 1024" version="1.1" xmlns="http://www.w3.org/2000/svg">
    <title>HackMD App Icon</title>
    <defs>
        <linearGradient x1="0%" y1="0%" x2="100%" y2="100%" id="appIconGradient">
            <stop stop-color="#3498DB" offset="0%"></stop>
            <stop stop-color="#2980B9" offset="100%"></stop>
        </linearGradient>
        <filter id="shadow" x="-20%" y="-20%" width="140%" height="140%">
            <feDropShadow dx="0" dy="8" stdDeviation="12" flood-color="rgba(0,0,0,0.3)"/>
        </filter>
    </defs>
    <g id="HackMD-Icon" stroke="none" stroke-width="1" fill="none" fill-rule="evenodd">
        <!-- Background with rounded corners -->
        <rect id="Background" fill="url(#appIconGradient)" x="80" y="80" width="864" height="864" rx="172.8"></rect>
        
        <!-- Document Shape -->
        <path d="M384,272 L640,272 L640,304 L672,304 L672,752 L352,752 L352,304 L384,304 L384,272 Z" id="Document" fill="#FFFFFF" filter="url(#shadow)"></path>
        
        <!-- Markdown Symbol -->
        <g id="Markdown-Symbol" transform="translate(352, 400)" fill="#2C3E50">
            <path d="M64,64 L64,224 L112,224 L160,176 L208,224 L256,224 L256,64 L208,64 L208,160 L160,112 L112,160 L112,64 L64,64 Z" id="M"></path>
        </g>
    </g>
</svg>